<svg xmlns:xlink="http://www.w3.org/1999/xlink" width="50" height="50" viewBox="0 0 50 50" fill="none" xmlns="http://www.w3.org/2000/svg" class="OlD8IH1iAXbPKF_M6hWD"><circle cx="25" cy="25" r="25" fill="#00A82D"></circle><path fill-rule="evenodd" clip-rule="evenodd" d="M18.064 13h14a2.667 2.667 0 012.667 2.667v13.996h-5.334a1 1 0 00-1 1v6.332H18.065a2.667 2.667 0 01-2.666-2.667V15.667A2.667 2.667 0 0118.064 13zm11.26 7.334a1 1 0 100-2h-8.647a1 1 0 100 2h8.646zm1 4.669a1 1 0 01-1 1h-8.647a1 1 0 110-2h8.646a1 1 0 011 1zm-6.98 6.653a1 1 0 000-2h-2.667a1 1 0 100 2h2.666z" fill="#FFFFFF"></path><path d="M30.398 31.663h3.45l-3.37 4.308a2.7 2.7 0 01-.08.097v-4.405z" fill="#FFFFFF"></path></svg>