<svg xmlns:xlink="http://www.w3.org/1999/xlink" width="24" height="24" fill="none" xmlns="http://www.w3.org/2000/svg" class="eS__h0j9YqpZ7rzWh1Qa"><path d="M7.254 3.002a2.75 2.75 0 00-2.75 2.75v12.5a2.75 2.75 0 002.75 2.75h6.747a5.49 5.49 0 01-.284-1.623l-.118.123H7.254c-.69 0-1.25-.56-1.25-1.25v-12.5c0-.69.56-1.25 1.25-1.25h9.5c.69 0 1.25.56 1.25 1.25v8.131a5.519 5.519 0 011.5-.126V5.752a2.75 2.75 0 00-2.75-2.75h-9.5z" fill="#4D4D4D"></path><path d="M15.996 8.163a.75.75 0 01-.75.75H8.761a.75.75 0 110-1.5h6.486a.75.75 0 01.75.75zm-.75 4.499a.75.75 0 000-1.5H8.761a.75.75 0 000 1.5h6.486zm-4.485 3.75a.75.75 0 100-1.5h-2a.75.75 0 000 1.5h2zm9.204-.156a.75.75 0 00-1.5 0v2.285h-2.216a.75.75 0 100 1.5h2.216v2.215a.75.75 0 101.5 0v-2.215h2.284a.75.75 0 000-1.5h-2.284v-2.285z" fill="#4D4D4D"></path></svg>