<svg xmlns:xlink="http://www.w3.org/1999/xlink" width="24" height="24" fill="none" xmlns="http://www.w3.org/2000/svg"><path fill-rule="evenodd" clip-rule="evenodd" d="M6.167 10.916c0-.38.13-.75.368-1.045l4.167-5.176a1.667 1.667 0 012.597 0l4.166 5.176c.238.296.368.665.368 1.045v2.543a4.583 4.583 0 00-4.168 6.032H7.833c-.92 0-1.666-.746-1.666-1.666v-6.91zm7.5-.545a1.666 1.666 0 11-3.332-.001 1.666 1.666 0 013.332.001z" fill="#737373"></path><path d="M18.638 15.545a.625.625 0 10-1.25 0v1.904h-1.846a.625.625 0 100 1.25h1.846v1.846a.625.625 0 001.25 0V18.7h1.904a.625.625 0 100-1.25h-1.904v-1.904z" fill="#737373"></path></svg>