<svg xmlns:xlink="http://www.w3.org/1999/xlink" width="24" height="24" fill="none" xmlns="http://www.w3.org/2000/svg" class="G4KnwaCtyo2d1CNOQcEP"><path d="M5.955 4.5H8.03v15H5.955v-15z" fill="#00A82D"></path><path fill-rule="evenodd" clip-rule="evenodd" d="M9.281 19.5v-15h7.09c.921 0 1.667.746 1.667 1.666v7.294h-.025a4.583 4.583 0 00-4.346 6.04H9.28zm5.88-9.167a.75.75 0 000-1.5h-3a.75.75 0 000 1.5h3z" fill="#00A82D"></path><path d="M18.638 15.549a.625.625 0 10-1.25 0v1.904h-1.846a.625.625 0 100 1.25h1.846v1.846a.625.625 0 001.25 0v-1.846h1.904a.625.625 0 100-1.25h-1.904v-1.904z" fill="#00A82D"></path></svg>