<svg xmlns:xlink="http://www.w3.org/1999/xlink" xmlns="http://www.w3.org/2000/svg" viewBox="0 0 200 160" class="GSDBRSFlvHmowec1BdOM" width="216"  height="173" ><path class="st0" d="M40 49c0-7.7 6.3-14 14-14h41.9c5.4 0 10.1 3.1 12.4 7.5-9.6.8-18.2 5.2-24.3 11.9H56.2c-1.3 0-2.3 1-2.3 2.3 0 1.3 1 2.3 2.3 2.3h24.2c-3.5 5.4-5.7 11.7-6.1 18.6H56.2c-1.3 0-2.3 1-2.3 2.3s1 2.3 2.3 2.3h18.2c.5 6.9 2.9 13.2 6.6 18.6H56.2c-1.3 0-2.3 1-2.3 2.3s1 2.3 2.3 2.3h28.7c6.1 6.2 14.3 10.3 23.4 11-2.3 4.5-7 7.5-12.4 7.5H54c-7.7 0-14-6.3-14-14V49z" fill="#D9D9D9"></path><path class="st1" d="M142.9 79.5c0 7-2.3 13.5-6.1 18.7l18.7 18.7c1.8 1.8 1.8 4.8 0 6.7-1.8 1.8-4.8 1.8-6.7 0l-18.7-18.7c-5.2 3.9-11.7 6.1-18.7 6.1-17.4 0-31.5-14.1-31.5-31.5S94 48 111.4 48s31.5 14.1 31.5 31.5zm-31.4 22.1c12.2 0 22.1-9.9 22.1-22.1s-9.9-22.1-22.1-22.1-22.1 9.9-22.1 22.1 9.9 22.1 22.1 22.1z" fill="#A6A6A6"></path><path class="st2" d="M106.5 70.1c-1.1-1.1-2.9-1.1-4 0s-1.1 2.9 0 4l5.4 5.4-5.4 5.4c-1.1 1.1-1.1 2.9 0 4s2.9 1.1 4 0l5.4-5.4 5.4 5.4c1.1 1.1 2.9 1.1 4 0s1.1-2.9 0-4l-5.4-5.4 5.4-5.4c1.1-1.1 1.1-2.9 0-4s-2.9-1.1-4 0l-5.4 5.4-5.4-5.4z" fill="#A6A6A6"></path></svg>