<svg xmlns:xlink="http://www.w3.org/1999/xlink" width="24" height="24" viewBox="0 0 24 24" fill="none" xmlns="http://www.w3.org/2000/svg"><path d="M8.183 4.625a.625.625 0 00-1.25 0V17.87L5.067 16a.625.625 0 00-.884 0 .62.62 0 000 .88l2.933 2.94c.244.244.64.244.884 0l2.933-2.94a.62.62 0 000-.88.625.625 0 00-.884 0l-1.866 1.87V4.625zM11.625 5a.625.625 0 100 1.25h8.75a.625.625 0 100-1.25h-8.75zM11 9.375c0-.345.28-.625.625-.625h6.25a.625.625 0 110 1.25h-6.25A.625.625 0 0111 9.375zM11.625 12.5a.625.625 0 100 1.25h3.75a.625.625 0 100-1.25h-3.75z" fill="#737373"></path></svg>